<svg xmlns="http://www.w3.org/2000/svg" viewBox="0 0 800 600" role="img" aria-label="Illustration of a small electric motor with wheel">
  <defs><linearGradient id="bg" x2="0" y2="1"><stop stop-color="#fff7ed"/><stop offset="1" stop-color="#ffedd5"/></linearGradient><linearGradient id="metal" x2="1" y2="1"><stop stop-color="#cbd5e1"/><stop offset=".45" stop-color="#64748b"/><stop offset="1" stop-color="#334155"/></linearGradient></defs>
  <rect width="800" height="600" rx="32" fill="url(#bg)"/><ellipse cx="405" cy="464" rx="250" ry="33" fill="#64748b" opacity=".2"/>
  <g transform="rotate(-7 400 300)"><rect x="212" y="228" width="320" height="145" rx="50" fill="url(#metal)" stroke="#334155" stroke-width="9"/><path d="M252 233v135M290 228v145M328 228v145M366 228v145M404 228v145" stroke="#e2e8f0" stroke-width="9" opacity=".65"/><rect x="492" y="270" width="105" height="62" rx="18" fill="#94a3b8" stroke="#475569" stroke-width="8"/><path d="M597 301h67" stroke="#64748b" stroke-width="18" stroke-linecap="round"/><circle cx="665" cy="301" r="30" fill="#f8fafc" stroke="#475569" stroke-width="12"/>
  <rect x="225" y="207" width="95" height="25" rx="8" fill="#0f172a"/><path d="M245 209v-35h37v35" fill="#ef4444" stroke="#7f1d1d" stroke-width="6"/><path d="M303 209v-35h37v35" fill="#111827" stroke="#334155" stroke-width="6"/><path d="M256 373v32h45M460 373v32h45" stroke="#475569" stroke-width="15" stroke-linecap="round"/><path d="M225 405h92M430 405h90" stroke="#94a3b8" stroke-width="14" stroke-linecap="round"/></g>
</svg>
