<svg xmlns="http://www.w3.org/2000/svg" viewBox="0 0 800 600" role="img" aria-label="Illustration of a microcontroller development board">
  <defs><linearGradient id="bg" x2="0" y2="1"><stop stop-color="#eff6ff"/><stop offset="1" stop-color="#dbeafe"/></linearGradient><linearGradient id="pcb" x2="1" y2="1"><stop stop-color="#2563a6"/><stop offset="1" stop-color="#123d68"/></linearGradient></defs>
  <rect width="800" height="600" rx="32" fill="url(#bg)"/><ellipse cx="400" cy="470" rx="250" ry="35" fill="#94a3b8" opacity=".25"/>
  <g transform="rotate(-7 400 300)"><rect x="190" y="150" width="420" height="300" rx="25" fill="url(#pcb)" stroke="#0f2942" stroke-width="10"/>
  <rect x="330" y="225" width="140" height="120" rx="8" fill="#111827"/><path d="M350 245h100v80H350z" fill="#1f2937"/><path d="M370 265h60v40h-60z" fill="#374151"/>
  <rect x="222" y="210" width="54" height="82" rx="8" fill="#cbd5e1"/><rect x="518" y="210" width="54" height="82" rx="8" fill="#cbd5e1"/>
  <g fill="#f8fafc"><circle cx="218" cy="178" r="8"/><circle cx="582" cy="178" r="8"/><circle cx="218" cy="422" r="8"/><circle cx="582" cy="422" r="8"/></g>
  <g fill="#facc15"><circle cx="300" cy="205" r="7"/><circle cx="300" cy="245" r="7"/><circle cx="300" cy="285" r="7"/><circle cx="300" cy="325" r="7"/><circle cx="300" cy="365" r="7"/><circle cx="500" cy="205" r="7"/><circle cx="500" cy="245" r="7"/><circle cx="500" cy="285" r="7"/><circle cx="500" cy="325" r="7"/><circle cx="500" cy="365" r="7"/></g>
  <rect x="360" y="170" width="80" height="24" rx="7" fill="#64748b"/><rect x="355" y="383" width="90" height="25" rx="7" fill="#0f172a"/><path d="M275 405h65M460 192h45M285 190v25M515 330h35" stroke="#7dd3fc" stroke-width="5" opacity=".8"/></g>
</svg>
